<?xml version="1.0" encoding="utf-8"?>
<!-- Generator: Adobe Illustrator 27.8.0, SVG Export Plug-In . SVG Version: 6.00 Build 0)  -->
<svg version="1.1" id="Capa_1" xmlns="http://www.w3.org/2000/svg" xmlns:xlink="http://www.w3.org/1999/xlink" x="0px" y="0px"
	 viewBox="0 0 30 29.99" style="enable-background:new 0 0 30 29.99;" xml:space="preserve">
<style type="text/css">
	.st0{fill:#FFFFFF;}
	.st1{fill:#5D2677;}
</style>
<g>
	<path class="st0" d="M18.1,22.38c-2.08,0-4.15,0-6.23,0c0,0.32,0.03,0.61,0,0.89c-0.11,1.06-1.02,1.89-2.1,1.94
		c-1.08,0.05-2.05-0.76-2.26-1.88c-0.19-0.99,0.43-2.07,1.41-2.4c0.33-0.11,0.37-0.28,0.31-0.56c-0.35-1.78-0.69-3.56-1.05-5.33
		c-0.41-2.05-0.83-4.1-1.24-6.15C6.85,8.47,6.84,8.46,6.41,8.46C6.01,8.47,5.62,8.47,5.23,8.48c-0.2,0-0.3-0.07-0.29-0.28
		c0.01-0.34,0.01-0.69,0-1.03C4.93,6.95,5.03,6.88,5.22,6.88c0.89,0,1.77,0,2.66,0c0.25,0,0.29,0.16,0.33,0.35
		c0.2,1.03,0.42,2.05,0.61,3.08c0.05,0.29,0.2,0.41,0.48,0.44c3.2,0.38,6.4,0.76,9.6,1.14c1.33,0.16,2.66,0.32,3.99,0.47
		c0.23,0.03,0.29,0.1,0.23,0.33c-0.56,2.12-1.12,4.24-1.67,6.36c-0.05,0.21-0.15,0.27-0.36,0.27c-2.28-0.01-4.56,0-6.84,0
		c-1.08,0-2.16,0-3.23,0c-0.36,0-0.38,0.03-0.31,0.38c0.05,0.25,0.1,0.49,0.13,0.74c0.03,0.25,0.15,0.35,0.39,0.35
		c0.51-0.01,1.03-0.01,1.54-0.01c2.43,0,4.86,0,7.29,0c1.21,0,2.07,0.6,2.35,1.65c0.23,0.88-0.03,1.64-0.7,2.23
		c-0.68,0.6-1.48,0.71-2.31,0.34c-0.82-0.36-1.26-1.01-1.31-1.9C18.06,22.87,18.09,22.64,18.1,22.38z M9.07,22.98
		c0,0.36,0.27,0.65,0.61,0.65c0.34,0,0.63-0.29,0.63-0.64c0-0.34-0.26-0.61-0.6-0.62C9.34,22.36,9.08,22.61,9.07,22.98z
		 M20.28,22.37c-0.36-0.01-0.64,0.27-0.64,0.62c0,0.34,0.3,0.64,0.63,0.64c0.32,0,0.62-0.29,0.63-0.62
		C20.91,22.67,20.62,22.37,20.28,22.37z"/>
	<g>
		<g>
			<path class="st1" d="M15.12,0C6.73-0.06,0.13,6.64,0,14.75c-0.13,8.59,6.83,15.28,14.98,15.24c8.16,0.05,14.91-6.56,15.02-14.78
				C30.11,6.95,23.52,0.06,15.12,0z M23.11,12.69c-0.56,2.12-1.12,4.24-1.67,6.36c-0.05,0.21-0.15,0.27-0.36,0.27
				c-2.28-0.01-4.56,0-6.84,0c-1.08,0-2.16,0-3.23,0c-0.36,0-0.38,0.03-0.31,0.38c0.05,0.25,0.1,0.49,0.13,0.74
				c0.03,0.25,0.15,0.35,0.39,0.35c0.51-0.01,1.03-0.01,1.54-0.01c2.43,0,4.86,0,7.29,0c1.21,0,2.07,0.6,2.35,1.65
				c0.23,0.88-0.03,1.64-0.7,2.23c-0.68,0.6-1.48,0.71-2.31,0.34c-0.82-0.36-1.26-1.01-1.31-1.9c-0.01-0.23,0.02-0.46,0.03-0.72
				c-2.08,0-4.15,0-6.23,0c0,0.32,0.03,0.61,0,0.89c-0.11,1.06-1.02,1.89-2.1,1.94c-1.08,0.05-2.05-0.76-2.26-1.88
				c-0.19-0.99,0.43-2.07,1.41-2.4c0.33-0.11,0.37-0.28,0.31-0.56c-0.35-1.78-0.69-3.56-1.05-5.33c-0.41-2.05-0.83-4.1-1.24-6.15
				C6.85,8.47,6.84,8.46,6.41,8.46C6.01,8.47,5.62,8.47,5.23,8.48c-0.2,0-0.3-0.07-0.29-0.28c0.01-0.34,0.01-0.69,0-1.03
				C4.93,6.95,5.03,6.88,5.22,6.88c0.89,0,1.77,0,2.66,0c0.25,0,0.29,0.16,0.33,0.35c0.2,1.03,0.42,2.05,0.61,3.08
				c0.05,0.29,0.2,0.41,0.48,0.44c3.2,0.38,6.4,0.76,9.6,1.14c1.33,0.16,2.66,0.32,3.99,0.47C23.11,12.38,23.18,12.46,23.11,12.69z"
				/>
			<path class="st1" d="M9.71,22.37c-0.36-0.01-0.63,0.25-0.63,0.61c0,0.36,0.27,0.65,0.61,0.65c0.34,0,0.63-0.29,0.63-0.64
				C10.31,22.65,10.04,22.38,9.71,22.37z"/>
			<path class="st1" d="M20.27,23.63c0.32,0,0.62-0.29,0.63-0.62c0.01-0.34-0.27-0.64-0.62-0.64c-0.36-0.01-0.64,0.27-0.64,0.62
				C19.64,23.33,19.94,23.63,20.27,23.63z"/>
		</g>
	</g>
</g>
</svg>
