<?xml version="1.0" encoding="utf-8"?>
<!-- Generator: Adobe Illustrator 27.8.0, SVG Export Plug-In . SVG Version: 6.00 Build 0)  -->
<svg version="1.1" id="Capa_1" xmlns="http://www.w3.org/2000/svg" xmlns:xlink="http://www.w3.org/1999/xlink" x="0px" y="0px"
	 viewBox="0 0 100.38 19.84" style="enable-background:new 0 0 100.38 19.84;" xml:space="preserve">
<style type="text/css">
	.st0{fill:#FFFFFF;}
	.st1{fill:#5C2675;}
	.st2{fill:#010202;}
</style>
<g>
	<g>
		<path class="st0" d="M98.84,5.02c-0.1,0.09-0.24,0.12-0.37,0.06c-0.12-0.08-0.1-0.25-0.13-0.38c-0.06-0.21-0.08-0.43-0.07-0.65
			c-0.01-0.18-0.09-0.36-0.09-0.54c-0.18,0.07-0.31,0.55-0.37,0.71c-0.07,0.2-0.14,0.46-0.38,0.53c-0.35,0.11-0.36-0.2-0.44-0.43
			c-0.06-0.13-0.11-0.26-0.14-0.4c-0.02-0.11,0-0.36-0.08-0.45c-0.13-0.14-0.12,0.12-0.13,0.24c-0.04,0.31-0.03,0.65-0.09,0.96
			c-0.04,0.21-0.16,0.46-0.4,0.49c-0.29,0.03-0.33-0.25-0.29-0.47c-0.12-0.38,0.22-0.94,0.3-1.31c0.09-0.44-0.02-0.94,0.19-1.36
			c-0.21-0.03-0.56-0.08-0.73,0.07c-0.14,0.13-0.12,0.37-0.15,0.54c-0.07,0.58-0.08,1.16-0.02,1.74c0.02,0.31-0.01,1.01-0.52,0.66
			c-0.34-0.24-0.1-0.88-0.06-1.2c0.06-0.52,0.01-1.04,0.02-1.56c0.01-0.6-0.52-0.09-0.82-0.09c-0.37,0-0.48-0.39-0.15-0.55
			c0.27-0.11,0.56-0.15,0.85-0.14c0.28-0.01,0.57,0.04,0.85,0.02c0.21-0.02,0.4-0.08,0.61-0.09c0.21-0.02,0.73-0.04,0.8,0.23
			c0.03,0.15-0.06,0.3-0.21,0.35c0.18,0.18,0.29,0.42,0.33,0.67c0.08,0.32,0.16,0.65,0.25,0.97c0.26-0.33,0.45-0.7,0.59-1.09
			c0.1-0.23,0.24-0.64,0.57-0.6c0.2,0.03,0.22,0.18,0.23,0.35c0.03,0.18,0.05,0.37,0.04,0.55c-0.01,0.1-0.08,0.19-0.09,0.29
			c0,0.13,0.01,0.26,0.05,0.38c0.05,0.24,0.03,0.47,0.08,0.71C98.92,4.48,99.05,4.83,98.84,5.02"/>
		<g>
			<polygon class="st0" points="2.52,13.61 10.42,3.68 2.64,3.68 2.64,1.42 13.5,1.42 13.5,3.76 5.56,13.65 13.63,13.65 
				13.63,15.95 2.52,15.95 			"/>
			<polygon class="st0" points="15.22,1.42 24.85,1.42 24.85,3.68 17.81,3.68 17.81,7.37 24.48,7.37 24.48,9.55 17.81,9.55 
				17.81,13.65 25.22,13.65 25.22,15.95 15.22,15.95 			"/>
			<polygon class="st0" points="50.38,1.42 60.01,1.42 60.01,3.68 52.96,3.68 52.96,7.37 52.96,9.55 52.96,13.65 60.38,13.65 
				60.38,15.95 50.38,15.95 			"/>
			<path class="st0" d="M27.31,1.42h4.74c3.33,0,5.48,1.17,5.48,4.21c0,3.2-2.57,4.31-5.65,4.31H29.9v6.02h-2.59V1.42z M31.7,7.76
				c1.68,0,3.22-0.41,3.22-2.14s-1.54-2.03-3.14-2.03H29.9v4.17H31.7z"/>
			<path class="st0" d="M38.82,1.42h4.74c3.33,0,5.48,1.17,5.48,4.21c0,3.2-2.57,4.31-5.65,4.31h-1.99v6.02h-2.59V1.42z M43.21,7.76
				c1.68,0,3.22-0.41,3.22-2.14S44.9,3.59,43.3,3.59h-1.89v4.17H43.21z"/>
			<polygon class="st0" points="61.69,1.42 64.28,1.42 64.28,13.65 70.46,13.65 70.46,15.95 61.69,15.95 			"/>
			<polygon class="st0" points="72.69,1.42 75.28,1.42 75.28,13.65 75.28,13.65 75.28,15.95 72.69,15.95 			"/>
			<polygon class="st0" points="79.57,1.42 82.99,1.42 89.75,12.3 89.79,12.3 89.79,1.42 92.38,1.42 92.38,15.95 89.09,15.95 
				82.19,4.72 82.15,4.72 82.15,15.95 79.57,15.95 			"/>
		</g>
	</g>
	<g>
		<path class="st1" d="M58,11.34c-0.15-0.02-0.3,0.04-0.45,0.04c-0.15-0.01-0.3-0.01-0.45-0.01c-0.15,0-0.3,0.04-0.45,0.05
			c-0.15,0.01-0.3-0.01-0.45,0c-0.15,0.01-0.3,0.04-0.45,0.05c-0.15,0.01-0.3-0.01-0.45,0c-0.18,0.01-0.35,0.09-0.53,0.1
			c-0.18,0.01-0.36,0.01-0.53,0.02c-0.18,0.01-0.36-0.04-0.53-0.03c-0.18,0.01-0.35,0.02-0.53,0.03c-0.17,0.01-0.34,0.01-0.51,0.03
			c-0.17,0.01-0.34,0.03-0.51,0.04c-0.17,0.01-0.34-0.02-0.51-0.02c-0.17,0.01-0.34,0.08-0.51,0.08c-0.17,0-0.35-0.03-0.51-0.05
			c-0.17-0.02-0.34-0.06-0.5-0.1c-0.15,0.05-0.3,0.09-0.46,0.12c-0.16,0.02-0.31,0.04-0.47,0.04c-0.16-0.03-0.31-0.07-0.46-0.13
			c-0.16,0.05-0.32,0.12-0.48,0.16c-0.16,0.04-0.32,0.1-0.48,0.14c-0.15,0.02-0.3-0.02-0.43-0.09c-0.11-0.09-0.2-0.21-0.24-0.35
			c-0.05-0.13-0.1-0.27,0.05-0.39c0.12-0.07,0.25-0.12,0.38-0.16c0.12-0.06,0.2-0.2,0.33-0.25c0-0.02,0.04,0,0.04-0.03
			c0.04-0.15,0.1-0.3,0.19-0.42c0.06-0.15,0.13-0.29,0.21-0.43c0.1-0.13,0.21-0.25,0.32-0.36c0.11-0.12,0.2-0.26,0.31-0.37
			c0.12-0.11,0.24-0.22,0.36-0.33c0.12-0.11,0.3-0.15,0.42-0.25c0.13-0.1,0.21-0.26,0.34-0.35c0.13-0.09,0.3-0.13,0.43-0.22
			c0.14-0.09,0.28-0.15,0.42-0.23c0.14-0.08,0.29-0.2,0.43-0.28c-0.13-0.07-0.29-0.17-0.42-0.24c-0.13-0.08-0.27-0.16-0.4-0.24
			c-0.13-0.08-0.3-0.1-0.43-0.19c-0.13-0.08-0.24-0.2-0.36-0.29c-0.07-0.05-0.12-0.14-0.2-0.2c-0.02,0.02-0.05,0.09-0.07,0.1
			c-0.14,0.06-0.28,0-0.4-0.05c-0.13-0.04-0.26-0.1-0.36-0.19c-0.15-0.16-0.26-0.35-0.33-0.55c-0.08-0.16-0.03-0.35,0.11-0.45
			c0.15-0.09,0.32-0.12,0.49-0.08c0.15,0.04,0.27,0.19,0.41,0.25c0.15,0.05,0.29,0.11,0.43,0.18c0.13,0.08,0.3,0.11,0.43,0.2
			c0.13,0.09,0.22,0.23,0.35,0.32c0.13,0.09,0.28,0.14,0.41,0.22c0.04-0.01,0.07,0.03,0.11,0.03c0.16,0,0.32-0.04,0.48-0.04
			c0.16,0.01,0.32,0.08,0.48,0.09c0.16,0.01,0.33-0.05,0.49-0.04c0.16,0.01,0.32,0.08,0.48,0.09c0.16,0.01,0.32,0.02,0.48,0.03
			c0.2-0.09,0.39-0.19,0.59-0.28c0.15-0.07,0.33-0.08,0.49-0.16c0.15-0.07,0.28-0.2,0.43-0.28c0.15-0.07,0.33-0.09,0.48-0.17
			c0.15-0.08,0.29-0.17,0.44-0.25c0.15-0.07,0.28-0.19,0.44-0.26c0.15-0.07,0.33-0.08,0.49-0.15c0.13-0.06,0.29-0.06,0.42,0.01
			c0.15,0.04,0.28,0.13,0.37,0.26c0.08,0.15,0.06,0.34-0.05,0.47c-0.11,0.12-0.22,0.24-0.33,0.37c-0.11,0.12-0.29,0.23-0.4,0.36
			c0.18-0.03,0.38-0.08,0.56-0.12c0.17-0.04,0.35-0.1,0.52-0.15c0.17-0.06,0.33-0.14,0.49-0.21c0.15-0.06,0.32,0.03,0.47,0.11
			c0.16,0.06,0.29,0.17,0.37,0.32c0.03,0.08,0.02,0.17-0.02,0.25c-0.04,0.08-0.11,0.13-0.2,0.15c-0.15,0.07-0.32,0.09-0.47,0.16
			c-0.15,0.07-0.29,0.16-0.44,0.23c-0.15,0.07-0.28,0.17-0.43,0.24c-0.15,0.07-0.32,0.09-0.47,0.16c-0.15,0.07-0.28,0.18-0.42,0.25
			c-0.02,0.07-0.07,0.14-0.13,0.18c-0.11,0.07-0.27,0.06-0.39,0.13c-0.12,0.06-0.24,0.12-0.36,0.18c-0.14,0.1-0.24,0.29-0.37,0.4
			c-0.14,0.12-0.3,0.21-0.44,0.31c0.13,0.1,0.28,0.16,0.41,0.25c0.13,0.1,0.23,0.22,0.36,0.31c0.13,0.09,0.26,0.19,0.39,0.27
			c0.13,0.09,0.28,0.15,0.42,0.23c0.14,0.08,0.26,0.19,0.4,0.26c0.14,0.07,0.28,0.16,0.43,0.22c0.15,0.06,0.29,0.14,0.45,0.18
			c0.14,0.04,0.26,0.13,0.33,0.25c0.08,0.12,0.09,0.27,0.02,0.4C58.31,11.34,58.22,11.37,58,11.34 M53.03,8.34
			c-0.11-0.07-0.26-0.09-0.37-0.16c-0.11-0.06-0.19-0.19-0.3-0.25C52.33,7.94,52.3,8,52.27,8.01c-0.14,0.07-0.27,0.13-0.4,0.21
			c-0.13,0.07-0.28,0.11-0.41,0.19c-0.13,0.08-0.24,0.19-0.36,0.28c-0.12,0.09-0.23,0.2-0.35,0.29c-0.12,0.09-0.27,0.15-0.38,0.24
			c-0.12,0.1-0.2,0.23-0.31,0.33c-0.11,0.1-0.2,0.22-0.31,0.33c-0.03,0.03-0.13,0.02-0.17,0.05c0.03-0.01,0.11,0.02,0.14,0.01
			C49.83,9.9,49.9,9.78,50,9.73c0.12-0.09,0.26-0.14,0.38-0.21c0.13-0.07,0.24-0.18,0.37-0.25c0.13-0.07,0.28-0.1,0.41-0.16
			c0.13-0.06,0.27-0.12,0.4-0.17c0.14-0.06,0.26-0.14,0.39-0.2c0.14-0.06,0.3-0.09,0.45-0.15c0.14-0.06,0.3-0.09,0.45-0.14
			C52.9,8.42,52.98,8.36,53.03,8.34 M54.18,7.59c0.12-0.1,0.25-0.22,0.37-0.33c-0.19-0.01-0.41-0.05-0.6-0.06
			c-0.12,0.05-0.21,0.18-0.33,0.23c-0.12,0.05-0.24,0.06-0.36,0.11c0.15,0.09,0.3,0.18,0.46,0.28c0.04,0.02,0.05,0.02,0.08,0.04
			C53.93,7.76,54.06,7.69,54.18,7.59L54.18,7.59z M55.57,10.55c0.16-0.01,0.29-0.05,0.44-0.06c-0.14-0.09-0.28-0.13-0.41-0.22
			c-0.13-0.09-0.21-0.26-0.34-0.35c-0.13-0.09-0.25-0.2-0.38-0.3c-0.13-0.1-0.29-0.12-0.42-0.21c-0.11,0.08-0.22,0.13-0.34,0.21
			c-0.11,0.08-0.21,0.2-0.32,0.27c-0.12,0.08-0.27,0.14-0.4,0.22c-0.13,0.08-0.26,0.16-0.39,0.23c-0.13,0.07-0.25,0.17-0.38,0.24
			c-0.13,0.07-0.28,0.1-0.41,0.17c0.17-0.01,0.34,0,0.5-0.01c0.17-0.01,0.34,0,0.51-0.01c0.16-0.01,0.31-0.05,0.47-0.06
			c0.16-0.01,0.31,0.02,0.47,0.01c0.16-0.01,0.31-0.06,0.46-0.07c0.15-0.01,0.31-0.06,0.46-0.08
			C55.26,10.52,55.42,10.56,55.57,10.55L55.57,10.55z"/>
		<path class="st1" d="M73.95,1.88c0.25,0.03,0.35,0.39,0.37,0.56c0.03,0.26,0.07,0.51,0.09,0.77c0.2,0.15,0.41,0.29,0.63,0.41
			c0.27,0.13,0.53,0.24,0.71,0.32c0.21,0.1,0.35,0.3,0.36,0.53c0.06,0.22,0.05,0.46-0.03,0.68c-0.14,0.22-0.38,0.35-0.64,0.35
			c-0.14,0-0.34-0.06-0.48-0.06c-0.12,0.16-0.18,0.43-0.31,0.47c-0.04,0.01-0.13-0.07-0.17-0.06v0.11c0.33,0.03,0.68-0.02,1.01-0.02
			c0.33,0.01,0.67,0.04,1,0.03c0.31,0,0.38,0.17,0.43,0.42C77,6.63,76.99,6.87,76.92,7.1c-0.09,0.26-0.32,0.44-0.58,0.5
			c-0.33,0-0.69-0.1-1.03-0.1c-0.12,0.16-0.23,0.38-0.39,0.41c-0.14,0.03-0.3-0.03-0.45-0.02c0,0.01,0.01,0.03,0.01,0.04
			c0.29-0.02,0.58,0.04,0.86,0.01c0.34-0.03,0.56,0.11,0.59,0.37c0.02,0.24-0.03,0.47-0.14,0.69c0.15-0.02,0.22,0.06,0.35,0.05
			c0.34-0.02,0.55,0.08,0.58,0.33c0.02,0.21-0.18,0.45-0.3,0.67c0.03,0.22,0.01,0.44-0.07,0.65c-0.05,0.21-0.19,0.38-0.38,0.48
			c-0.27,0.11-0.49,0.29-0.77,0.38c-0.28,0.09-0.6,0.11-0.88,0.19c0,0.15,0.04,0.32,0.03,0.47c0.28,0.01,0.56-0.04,0.84-0.05
			c0.29,0,0.57,0.04,0.86,0.04c0.28,0,0.57,0.09,0.85,0.09c0.28,0,0.57-0.04,0.85-0.02c0.31,0.02,0.44,0.27,0.42,0.56
			c-0.05,0.25-0.17,0.49-0.35,0.67c-0.18,0.21-0.27,0.49-0.47,0.69c-0.2,0.19-0.49,0.31-0.71,0.5c-0.22,0.18-0.42,0.37-0.65,0.54
			c-0.23,0.17-0.41,0.39-0.65,0.55c-0.23,0.16-0.48,0.31-0.72,0.47c-0.24,0.16-0.44,0.36-0.68,0.52c-0.24,0.16-0.55,0.23-0.79,0.39
			c-0.23,0.16-0.46,0.34-0.68,0.51c-0.23,0.17-0.37,0.42-0.59,0.6c-0.3,0.25-1.01,0.19-1.14-0.13c-0.08-0.18,0.06-0.45,0.19-0.67
			c0.1-0.21,0.24-0.41,0.41-0.58c0.2-0.16,0.37-0.35,0.58-0.51c0.21-0.16,0.5-0.21,0.71-0.36c0.21-0.15,0.39-0.33,0.61-0.48
			c0.22-0.14,0.42-0.3,0.64-0.44c0.22-0.14,0.4-0.33,0.61-0.47c0.21-0.15,0.48-0.23,0.69-0.39c0.21-0.15,0.35-0.29,0.55-0.45
			c-0.25,0-0.44-0.07-0.68-0.07c-0.25,0-0.48,0.09-0.73,0.08c0,0.11-0.05,0.19-0.05,0.31c0.06,0.33-0.14,0.66-0.47,0.75
			c-0.14,0.07-0.31,0.07-0.45-0.02c-0.14-0.09-0.21-0.24-0.2-0.4c0-0.32-0.09-0.4-0.08-0.72c-0.25-0.03-0.46-0.15-0.7-0.2
			c-0.26,0-0.52-0.02-0.77-0.05c-0.23-0.1-0.45-0.21-0.66-0.34c-0.21-0.12-0.41-0.26-0.6-0.42c-0.21-0.16-0.32-0.43-0.28-0.7
			c0.07-0.26,0.24-0.47,0.47-0.6c0.3-0.22,0.64-0.4,1-0.52c0.01-0.26,0.1-0.51,0.27-0.71c-0.1-0.27-0.06-0.58,0.1-0.81
			c-0.27-0.09-0.51-0.26-0.68-0.49c-0.16-0.24-0.23-0.52-0.21-0.8c0.04-0.22,0.14-0.43,0.27-0.61c0.13-0.21,0.3-0.39,0.5-0.54
			c-0.27-0.07-0.54-0.15-0.8-0.25c-0.21-0.13-0.41-0.27-0.6-0.43c-0.26-0.22-0.35-0.57-0.24-0.89c0.13-0.31,0.4-0.55,0.73-0.62
			c0.21-0.05,0.45-0.08,0.65-0.12c0.12-0.24,0.27-0.52,0.52-0.58c0.25-0.04,0.51-0.07,0.77-0.08c-0.19-0.28-0.3-0.61-0.32-0.95
			c-0.07-0.22-0.06-0.46,0.02-0.68c0.13-0.23,0.36-0.39,0.62-0.44C73.43,1.84,73.69,1.84,73.95,1.88"/>
		<path class="st1" d="M19.18,12.39c-0.4-0.08-0.81-0.13-1.22-0.19c-0.41-0.06-0.8-0.23-1.21-0.28c-0.41-0.05-0.82-0.08-1.23-0.12
			c-0.41-0.04-0.83,0.04-1.24,0c-0.41-0.03-0.81-0.15-1.22-0.18c-0.41-0.03-0.82-0.11-1.23-0.15c-0.41-0.03-0.82,0-1.24-0.04
			c-0.33-0.03-0.66-0.13-1-0.16c-0.43,0.06-0.86,0.13-1.3,0.19c-0.43,0.05-0.86,0.12-1.29,0.13c-0.43,0.03-0.87,0.02-1.3-0.03
			c-0.43-0.07-0.85-0.19-1.25-0.37c-0.33,0.05-0.65,0.12-0.97,0.21c-0.31,0.08-0.59,0.28-0.9,0.38c-0.35,0.17-0.77,0.05-0.97-0.28
			c-0.22-0.34-0.13-0.77,0.14-0.88c0.42-0.18,0.86-0.32,1.3-0.43c-0.31-0.08-0.62-0.18-0.91-0.31C1.74,9.7,1.46,9.3,1.42,8.83
			C1.45,8.37,1.85,8.16,2.31,8c0.41-0.16,0.83-0.26,1.26-0.31c0.52-0.04,1-0.07,1.3-0.1c0.6-0.07,1.17-0.15,1.77-0.26
			C6.46,7.27,6.29,7.19,6.12,7.1C5.67,7.06,5.23,6.98,4.79,6.88C4.47,6.72,4.22,6.45,4.09,6.12C4.01,5.98,3.87,5.5,4.2,5.61
			c0.14,0.05,0.3,0.14,0.44,0.18c-0.09-0.15-0.2-0.36-0.1-0.5C4.82,5.01,5.2,4.87,5.59,4.91c0.38-0.02,0.76,0,1.14,0.05
			C7.2,5.04,7.66,5.14,8.12,5.27c0.46,0.13,0.91,0.3,1.36,0.44c0.38,0.12,0.76,0.22,1.14,0.34c0.37,0.12,0.76,0.22,1.13,0.35
			c0.37,0.13,0.72,0.32,1.08,0.48c0.43,0.19,0.95,0.29,1.4,0.54c0.42,0.28,0.81,0.58,1.18,0.92c0.42,0.28,0.79,0.61,1.11,1
			c0.05,0.07,0.34,0.69,0.02,0.7c-0.34,0-0.69-0.02-1.03-0.07c-0.34-0.03-0.68-0.05-1.02-0.04c-0.37-0.01-0.75-0.12-1.12-0.1
			c-0.37,0.02-0.74,0.11-1.11,0.14c-0.2,0.02-0.39-0.01-0.59,0.01c0.4,0,0.79,0.02,1.19,0.04c0.4,0.02,0.8,0.01,1.2,0.05
			c0.4,0.04,0.78,0.19,1.17,0.26c0.39,0.06,0.81,0.02,1.2,0.11c0.39,0.09,0.76,0.25,1.14,0.37c0.38,0.12,0.77,0.22,1.14,0.38
			c0.31,0.16,0.56,0.41,0.7,0.73C19.47,12.09,19.46,12.45,19.18,12.39 M11.39,9.02c0.43,0.01,0.88,0.1,1.3,0.1
			c-0.81-0.27-1.59-0.49-2.4-0.76C9.85,8.42,9.33,8.32,8.88,8.39c-0.45,0.07-0.8,0.34-1.24,0.41C7.2,8.88,6.71,8.87,6.26,8.93
			C5.9,8.98,5.14,8.99,4.38,9.01c-0.64-0.05-1.22,0.06-1.7,0.31c0.44,0.14,0.87,0.24,1.3,0.3C4.42,9.7,4.86,9.75,5.28,9.77
			c0.48-0.19,0.94-0.42,1.46-0.53c0.52-0.12,1.16,0,1.71-0.05C9,9.13,9.52,9.01,10.11,9.01C10.54,9.02,10.96,9,11.39,9.02
			L11.39,9.02z M8.45,6.67C8.59,6.72,8.72,6.8,8.86,6.84c-0.24-0.18-0.47-0.33-0.71-0.5C8,6.32,7.84,6.23,7.69,6.21
			c-0.15-0.02-0.3,0.03-0.45,0.01C7.09,6.19,6.93,6.13,6.78,6.11c-0.12-0.02-0.37-0.1-0.62-0.17c-0.2-0.08-0.4-0.11-0.59-0.08
			C5.7,5.95,5.83,6.03,5.96,6.09C6.1,6.17,6.23,6.23,6.37,6.28C6.55,6.27,6.72,6.24,6.9,6.26c0.18,0.02,0.38,0.12,0.57,0.16
			c0.18,0.04,0.37,0.06,0.56,0.12C8.17,6.59,8.31,6.63,8.45,6.67L8.45,6.67z M12.8,8.06c0.81,0.31,1.55,0.69,2.38,0.95
			c-0.43-0.32-0.92-0.48-1.37-0.78c-0.06,0.03-0.05,0.06-0.14,0.07C13.36,8.35,13.11,8.09,12.8,8.06L12.8,8.06z"/>
	</g>
</g>
</svg>
